<svg width="120" height="120" viewBox="0 0 120 120" fill="none" xmlns="http://www.w3.org/2000/svg">
  <rect width="120" height="120" rx="8" fill="#F3F4F6"/>
  <path d="M30 40C30 36.6863 32.6863 34 36 34H84C87.3137 34 90 36.6863 90 40V80C90 83.3137 87.3137 86 84 86H36C32.6863 86 30 83.3137 30 80V40Z" fill="#E5E7EB"/>
  <circle cx="45" cy="50" r="8" fill="#D1D5DB"/>
  <path d="M40 70L50 60L60 70L75 55L80 60V75H40V70Z" fill="#D1D5DB"/>
  <path d="M45 90C44.4477 90 44 89.5523 44 89C44 88.4477 44.4477 88 45 88H75C75.5523 88 76 88.4477 76 89C76 89.5523 75.5523 90 75 90H45Z" fill="#9CA3AF"/>
  <path d="M50 95C49.4477 95 49 94.5523 49 94C49 93.4477 49.4477 93 50 93H70C70.5523 93 71 93.4477 71 94C71 94.5523 70.5523 95 70 95H50Z" fill="#9CA3AF"/>
</svg>
